<?xml version="1.0" standalone="no"?>
<!DOCTYPE svg PUBLIC "-//W3C//DTD SVG 20010904//EN"
 "http://www.w3.org/TR/2001/REC-SVG-20010904/DTD/svg10.dtd">
<svg version="1.0" xmlns="http://www.w3.org/2000/svg"
 width="240.000000pt" height="240.000000pt" viewBox="0 0 240.000000 240.000000"
 preserveAspectRatio="xMidYMid meet">
<metadata>
Created by potrace 1.14, written by Peter Selinger 2001-2017
</metadata>
<g transform="translate(0.000000,240.000000) scale(0.100000,-0.100000)"
fill="#000000" stroke="none">
<path d="M1888 2174 c-2 -1 -18 -5 -35 -9 -18 -3 -42 -9 -55 -14 -13 -5 -26
-9 -31 -10 -4 0 -29 -12 -56 -26 -46 -23 -184 -145 -165 -145 5 0 4 -4 -2 -8
-26 -16 -95 -175 -108 -247 -11 -59 -20 -130 -19 -155 1 -42 13 -174 18 -200
3 -14 8 -38 11 -55 3 -16 7 -34 8 -40 3 -11 20 -87 21 -95 5 -28 41 -119 53
-132 8 -10 12 -18 8 -18 -4 0 6 -18 23 -39 17 -21 31 -44 31 -49 0 -6 -22 -34
-50 -64 -54 -58 -59 -67 -32 -66 9 0 22 -1 27 -2 12 -5 70 7 107 22 23 8 33 5
72 -21 24 -17 49 -31 54 -31 5 0 24 -8 43 -17 51 -27 198 -24 260 4 59 26 123
84 156 140 13 23 30 43 36 43 6 0 8 3 5 6 -4 3 7 33 22 67 58 129 74 214 72
397 -2 237 -13 321 -59 445 -41 109 -133 234 -185 251 -10 3 -18 10 -18 15 0
5 -9 9 -20 9 -11 0 -20 5 -20 10 0 6 -8 10 -18 10 -10 0 -22 3 -26 7 -10 11
-120 25 -128 17z"/>
<path d="M876 1264 c-54 -20 -68 -34 -64 -63 3 -23 0 -26 -27 -27 -42 -1 -112
-13 -142 -25 -14 -5 -29 -7 -34 -3 -5 3 -9 1 -9 -4 0 -5 -19 -13 -42 -17 -24
-4 -49 -9 -57 -11 -8 -1 -23 3 -35 11 -12 7 -37 18 -56 24 -20 6 -40 21 -45
33 -8 19 -18 23 -60 24 -70 2 -138 -23 -190 -68 -39 -34 -43 -42 -40 -76 4
-32 -16 -107 -35 -137 -20 -32 -6 -227 18 -237 10 -4 50 -90 56 -120 16 -83
32 -130 72 -214 25 -52 59 -107 75 -124 27 -27 34 -29 94 -26 97 5 137 37 192
154 72 153 177 214 392 227 69 4 67 5 139 -68 77 -79 212 -167 258 -168 84 -2
131 63 126 174 -2 45 -31 155 -43 163 -5 3 -9 12 -9 20 0 15 -37 73 -54 85 -4
4 -9 33 -11 65 -5 92 -51 189 -145 300 -23 27 -105 74 -131 74 -6 0 -22 9 -36
20 -14 11 -29 17 -33 15 -5 -3 -11 -1 -15 5 -9 14 -63 11 -109 -6z"/>
</g>
</svg>
